<?xml version="1.0" encoding="UTF-8"?>
<svg id="Layer_2" data-name="Layer 2" xmlns="http://www.w3.org/2000/svg" viewBox="0 0 85 85">
  <defs>
    <style>
      .cls-1 {
        fill: #8b8bff;
      }

      .cls-1, .cls-2 {
        stroke-width: 0px;
      }

      .cls-2 {
        fill: #00004a;
      }
    </style>
  </defs>
  <g id="Apps">
    <g>
      <rect class="cls-2" width="85" height="85" rx="18.3" ry="18.3"/>
      <g>
        <path class="cls-1" d="M32.88,23.15h-8.9l-12.25,38.21h7.2l3.29-10.84h12.13l3.45,10.84h7.48l-12.42-38.21ZM23.36,45.22l2.95-9.41c.68-2.26,1.24-4.92,1.81-7.14h.11c.56,2.21,1.2,4.82,1.93,7.14l3,9.41h-9.8Z"/>
        <path class="cls-1" d="M73.26,46.48c0-6.07-2.96-13.44-11.92-13.44s-13.49,7.2-13.49,14.86c0,8.45,5.27,13.95,14.23,13.95,3.96,0,7.26-.73,9.64-1.69l-1.03-4.82c-2.09.79-4.42,1.24-7.65,1.24-4.42,0-8.33-2.16-8.51-7.15h18.49c.12-.62.24-1.65.24-2.95ZM54.54,44.62c.29-2.83,2.1-6.75,6.41-6.75,4.65,0,5.79,4.2,5.73,6.75h-12.14Z"/>
      </g>
    </g>
  </g>
</svg>