<?xml version="1.0" encoding="UTF-8"?>
<svg id="Layer_2" data-name="Layer 2" xmlns="http://www.w3.org/2000/svg" viewBox="0 0 85 85">
  <defs>
    <style>
      .cls-1 {
        fill: #300;
      }

      .cls-1, .cls-2 {
        stroke-width: 0px;
      }

      .cls-2 {
        fill: #ff9a00;
      }
    </style>
  </defs>
  <g id="Apps">
    <g>
      <path class="cls-1" d="M0,30.76C0,19.99,0,14.61,2.1,10.5,3.94,6.88,6.88,3.94,10.5,2.1,14.61,0,19.99,0,30.76,0h23.48c10.77,0,16.15,0,20.26,2.1,3.62,1.84,6.56,4.78,8.4,8.4,2.1,4.11,2.1,9.5,2.1,20.26v23.48c0,10.77,0,16.15-2.1,20.26-1.84,3.62-4.78,6.56-8.4,8.4-4.11,2.1-9.5,2.1-20.26,2.1h-23.48c-10.77,0-16.15,0-20.26-2.1-3.62-1.84-6.56-4.78-8.4-8.4-2.1-4.11-2.1-9.5-2.1-20.26v-23.48Z"/>
      <path class="cls-2" d="M41.18,53.31h-13.23l-2.69,8.58c-.07.32-.37.54-.69.53h-6.6c-.38,0-.51-.21-.4-.64l11.39-33.64c.11-.35.23-.75.34-1.2.15-.78.23-1.57.23-2.36-.03-.23.17-.44.4-.41h9.05c.27,0,.42.1.46.29l12.92,37.37c.11.39,0,.58-.34.58h-7.34c-.26.03-.51-.15-.57-.41l-2.92-8.7ZM30.03,46.02h9.01c-1.48-5.06-3.15-10.05-4.5-15.15-1.46,5.11-3.05,10.19-4.5,15.15Z"/>
      <path class="cls-2" d="M60.08,30.33c-.58.02-1.16-.08-1.7-.3-.54-.22-1.03-.56-1.43-.99-.4-.45-.72-.97-.92-1.54-.21-.57-.3-1.18-.27-1.79-.02-.6.08-1.2.3-1.76.22-.56.55-1.06.98-1.48.42-.41.92-.74,1.46-.95.54-.22,1.12-.32,1.7-.3,1.37,0,2.44.42,3.22,1.26.39.44.7.95.9,1.5.2.56.29,1.15.27,1.74.02.61-.07,1.22-.28,1.79-.21.57-.53,1.1-.94,1.54-.43.44-.94.77-1.51,1-.56.22-1.17.32-1.77.29ZM56.1,61.83v-27.91c0-.35.15-.53.45-.53h6.98c.3,0,.45.18.45.53v27.91c0,.39-.15.58-.45.58h-6.93c-.34,0-.51-.19-.51-.58Z"/>
    </g>
  </g>
</svg>