<?xml version="1.0" encoding="UTF-8"?>
<svg id="Layer_2" data-name="Layer 2" xmlns="http://www.w3.org/2000/svg" viewBox="0 0 85 85">
  <defs>
    <style>
      .cls-1 {
        fill: #fff;
        fill-rule: evenodd;
      }

      .cls-1, .cls-2 {
        stroke-width: 0px;
      }

      .cls-2 {
        fill: #7609f6;
      }
    </style>
  </defs>
  <g id="Apps">
    <g>
      <rect class="cls-2" x="0" width="85" height="85" rx="12" ry="12"/>
      <path class="cls-1" d="M25.25,19c-3.37,0-5.86,2.95-5.75,6.14.11,3.07-.03,7.05-1.03,10.29-1,3.25-2.7,5.31-5.48,5.58v2.99c2.77.26,4.47,2.32,5.48,5.58,1,3.24,1.14,7.22,1.03,10.29-.11,3.2,2.38,6.14,5.75,6.14h34.51c3.37,0,5.86-2.95,5.75-6.14-.11-3.07.03-7.05,1.03-10.29,1-3.25,2.7-5.31,5.47-5.58v-2.99c-2.77-.26-4.47-2.32-5.47-5.58-1-3.24-1.14-7.22-1.03-10.29.11-3.2-2.38-6.14-5.75-6.14H25.25h0ZM52.98,47.93c0,4.4-3.29,7.07-8.75,7.07h-9.28c-.13,0-.26-.02-.38-.07-.4-.16-.63-.53-.63-.93v-23c0-.13.02-.26.07-.38.16-.4.53-.63.93-.63h9.24c4.55,0,7.54,2.46,7.54,6.24,0,2.65-2.01,5.03-4.57,5.44v.14c3.48.38,5.83,2.79,5.83,6.12ZM43.28,33.17h-5.28v7.45h4.44c3.44,0,5.33-1.38,5.33-3.86,0-2.32-1.63-3.6-4.5-3.6ZM38,43.57v8.26h5.5c3.6,0,5.5-1.44,5.5-4.16s-1.96-4.11-5.74-4.11h-5.27Z"/>
    </g>
  </g>
</svg>