<?xml version="1.0" encoding="UTF-8"?>
<svg id="Layer_2" data-name="Layer 2" xmlns="http://www.w3.org/2000/svg" viewBox="0 0 85 85">
  <defs>
    <style>
      .cls-1 {
        fill: #a259ff;
      }

      .cls-1, .cls-2, .cls-3, .cls-4, .cls-5, .cls-6 {
        stroke-width: 0px;
      }

      .cls-2 {
        fill: #1abcfe;
      }

      .cls-3 {
        fill: #f24e1e;
      }

      .cls-4 {
        fill: #0acf83;
      }

      .cls-5 {
        fill: #ff7262;
      }

      .cls-6 {
        fill: #141414;
      }
    </style>
  </defs>
  <g id="Apps">
    <g>
      <rect class="cls-6" width="85" height="85" rx="12" ry="12"/>
      <g>
        <path class="cls-2" d="M42.51,42.49c0-4.15,3.28-7.51,7.32-7.51s7.32,3.36,7.32,7.51-3.28,7.51-7.32,7.51-7.32-3.36-7.32-7.51Z"/>
        <path class="cls-4" d="M27.85,57.53c0-4.15,3.28-7.51,7.32-7.51h7.32v7.51c0,4.14-3.28,7.51-7.32,7.51s-7.32-3.36-7.32-7.51Z"/>
        <path class="cls-5" d="M42.49,19.96v14.99h7.31c4.04,0,7.31-3.36,7.31-7.5s-3.27-7.5-7.31-7.5h-7.31Z"/>
        <path class="cls-3" d="M27.87,27.46c0,4.14,3.27,7.5,7.31,7.5h7.31v-14.99h-7.31c-4.04,0-7.31,3.36-7.31,7.5Z"/>
        <path class="cls-1" d="M27.87,42.46c0,4.14,3.27,7.5,7.31,7.5h7.31v-14.99h-7.31c-4.04,0-7.31,3.35-7.31,7.5Z"/>
      </g>
    </g>
  </g>
</svg>