<?xml version="1.0" encoding="UTF-8"?>
<svg id="Layer_2" data-name="Layer 2" xmlns="http://www.w3.org/2000/svg" viewBox="0 0 85 85">
  <defs>
    <style>
      .cls-1 {
        fill: #fff;
        fill-rule: evenodd;
      }

      .cls-1, .cls-2 {
        stroke-width: 0px;
      }

      .cls-2 {
        fill: #061c28;
      }
    </style>
  </defs>
  <g id="Apps">
    <g>
      <rect class="cls-2" width="85" height="85" rx="12" ry="12"/>
      <g id="Page-1">
        <g id="Dribbble-Light-Preview">
          <g id="icons">
            <path id="github-_142_" data-name="github-[#142]" class="cls-1" d="M42.5,17.67c13.71,0,24.83,11.4,24.83,25.46,0,11.25-7.11,20.79-16.97,24.16-1.26.25-1.71-.54-1.71-1.22,0-.84.03-3.58.03-6.99,0-2.37-.79-3.92-1.69-4.71,5.53-.63,11.34-2.78,11.34-12.56,0-2.78-.96-5.05-2.56-6.83.26-.64,1.11-3.23-.24-6.74,0,0-2.08-.68-6.82,2.61-1.98-.56-4.11-.85-6.22-.86-2.11,0-4.23.29-6.22.86-4.75-3.29-6.83-2.61-6.83-2.61-1.35,3.51-.5,6.1-.24,6.74-1.59,1.78-2.56,4.05-2.56,6.83,0,9.75,5.8,11.94,11.31,12.58-.71.64-1.35,1.76-1.58,3.4-1.42.65-5.01,1.78-7.23-2.11,0,0-1.31-2.45-3.81-2.62,0,0-2.42-.03-.17,1.55,0,0,1.63.78,2.76,3.72,0,0,1.46,4.54,8.37,3,.01,2.13.03,4.13.03,4.74,0,.67-.46,1.46-1.7,1.22-9.87-3.36-16.98-12.91-16.98-24.16,0-14.06,11.12-25.46,24.83-25.46"/>
          </g>
        </g>
      </g>
    </g>
  </g>
</svg>