<?xml version="1.0" encoding="UTF-8"?>
<svg id="Layer_2" data-name="Layer 2" xmlns="http://www.w3.org/2000/svg" viewBox="0 0 85 85">
  <defs>
    <style>
      .cls-1 {
        fill: #000;
      }

      .cls-1, .cls-2 {
        stroke-width: 0px;
      }

      .cls-2 {
        fill: #f5de19;
      }
    </style>
  </defs>
  <g id="Apps">
    <g>
      <rect class="cls-2" width="85" height="85" rx="12.09" ry="12.09"/>
      <path class="cls-1" d="M59.64,67.77c1.3,2.65,4.01,4.31,6.96,4.28,2.92,0,4.79-1.46,4.79-3.48,0-2.41-1.92-3.27-5.13-4.68l-1.76-.76c-5.09-2.17-8.46-4.88-8.46-10.62,0-5.28,4.02-9.31,10.32-9.31,4.17-.3,8.12,1.92,10.02,5.64l-5.51,3.52c-.73-1.85-2.53-3.05-4.52-3.02-1.69-.17-3.19,1.06-3.36,2.75,0,.09-.01.18-.02.28,0,2.11,1.31,2.97,4.33,4.28l1.76.76c5.99,2.57,9.37,5.18,9.37,11.07,0,6.34-4.98,9.82-11.68,9.82-5.33.34-10.36-2.48-12.84-7.21l5.72-3.33ZM34.76,68.38c1.11,1.96,2.12,3.62,4.55,3.62s3.79-.91,3.79-4.43v-23.96h7.07v24.05c0,7.29-4.3,10.62-10.56,10.62-4.53.25-8.74-2.31-10.61-6.43l5.76-3.48Z"/>
    </g>
  </g>
</svg>