<?xml version="1.0" encoding="UTF-8"?>
<svg id="Layer_2" data-name="Layer 2" xmlns="http://www.w3.org/2000/svg" viewBox="0 0 85 85">
  <defs>
    <style>
      .cls-1 {
        fill: #001833;
      }

      .cls-1, .cls-2 {
        stroke-width: 0px;
      }

      .cls-2 {
        fill: #2daaff;
      }
    </style>
  </defs>
  <g id="Apps">
    <g>
      <rect class="cls-1" x="0" width="85" height="85" rx="18.11" ry="18.11"/>
      <g id="_2069a460dcf28295e231f3111e037552" data-name="2069a460dcf28295e231f3111e037552">
        <path class="cls-2" d="M40.32,25.79c-2.48-2.08-6.3-3.17-11.49-3.17-4.79,0-8.31.35-10.85.81v38.41h7.05v-14.68c.92.17,2.13.23,3.46.23,5.02,0,9.47-1.32,12.3-4.15,2.2-2.08,3.35-5.14,3.35-8.84s-1.5-6.7-3.81-8.61ZM28.49,41.82c-1.45,0-2.6-.06-3.46-.29v-13.17c.75-.17,2.13-.35,4.09-.35,4.91,0,7.92,2.31,7.92,6.64,0,4.56-3.24,7.16-8.55,7.16Z"/>
        <path class="cls-2" d="M67.02,53.6c0,5.08-3.99,8.78-11.44,8.78-3.41,0-6.47-.81-8.55-1.96l1.39-5.14c1.61.98,4.68,2.02,7.22,2.02,3.12,0,4.51-1.27,4.51-3.12s-1.16-2.89-4.62-4.09c-5.49-1.91-7.8-4.92-7.74-8.21,0-4.97,4.1-8.84,10.63-8.84,3.12,0,5.83.81,7.45,1.68l-1.39,5.02c-1.21-.69-3.46-1.62-5.94-1.62s-3.93,1.22-3.93,2.95,1.33,2.66,4.91,3.92c5.08,1.85,7.45,4.45,7.51,8.61Z"/>
      </g>
    </g>
  </g>
</svg>