<?xml version="1.0" encoding="UTF-8"?>
<svg id="Layer_2" data-name="Layer 2" xmlns="http://www.w3.org/2000/svg" viewBox="0 0 85 85">
  <defs>
    <style>
      .cls-1 {
        fill: #1abcfe;
      }

      .cls-1, .cls-2 {
        stroke-width: 0px;
      }

      .cls-2 {
        fill: #061c28;
      }
    </style>
  </defs>
  <g id="Apps">
    <g>
      <rect class="cls-2" width="85" height="85" rx="12" ry="12"/>
      <path class="cls-1" d="M39.36,54.04c1.02.05,2.06.08,3.11.08s2.12-.02,3.15-.08c-1.03,1.33-2.05,2.51-3.13,3.64h.01c-1.07-1.13-2.1-2.31-3.07-3.54l-.08-.1ZM28.81,52.53c2.01.51,4.45.94,6.95,1.21l.24.02c1.53,2.1,3.07,3.95,4.73,5.68l-.02-.02c-2.43,2.71-5.71,4.61-9.41,5.3h-.1s-.01.01-.02.01c-.46,0-.89-.11-1.27-.31h.01c-1.54-.87-2.21-4.24-1.69-8.56.12-1.07.33-2.19.58-3.33h0ZM56.22,52.56c.22.88.42,2,.57,3.13l.02.16c.53,4.32-.12,7.69-1.65,8.58-.34.19-.75.3-1.18.3-.04,0-.09,0-.13,0h0c-3.8-.69-7.08-2.59-9.5-5.26h-.01c1.63-1.72,3.16-3.57,4.57-5.51l.11-.16c2.73-.29,5.19-.73,7.57-1.33l-.36.08h0ZM30.97,45.62c.46.91.95,1.81,1.48,2.72.53.9,1.08,1.78,1.63,2.65-1.61-.24-3.16-.53-4.64-.89.42-1.46.94-2.97,1.53-4.48h0ZM53.99,45.57c.61,1.52,1.13,3.04,1.57,4.51-1.48.36-3.05.67-4.67.9.56-.87,1.11-1.76,1.63-2.68.52-.9,1.01-1.82,1.47-2.73h0ZM26.96,35.68c.81,2.74,1.67,5.03,2.68,7.24l-.14-.34c-.86,1.86-1.72,4.14-2.42,6.48l-.1.38c-1.31-.4-2.36-.8-3.38-1.24l.21.08c-4.01-1.71-6.6-3.95-6.6-5.73s2.59-4.03,6.6-5.73c.97-.42,2.04-.79,3.14-1.14h0ZM57.99,35.65c1.12.35,2.19.73,3.18,1.15,4.01,1.71,6.6,3.95,6.6,5.73-.01,1.78-2.6,4.03-6.61,5.73-.97.42-2.04.79-3.14,1.14-.82-2.75-1.68-5.04-2.69-7.25l.14.35c.86-1.86,1.72-4.14,2.41-6.48l.1-.38h0ZM50.88,34.09c1.61.24,3.16.53,4.64.9-.42,1.46-.94,2.97-1.53,4.48-.46-.9-.95-1.81-1.48-2.72-.52-.91-1.08-1.79-1.63-2.65h0ZM34.07,34.09c-.56.87-1.11,1.77-1.63,2.69-.52.9-1.01,1.81-1.47,2.72-.61-1.52-1.13-3.03-1.57-4.51,1.48-.35,3.04-.66,4.66-.89h0ZM42.51,33.5c1.71,0,3.42.08,5.1.21.94,1.35,1.85,2.78,2.74,4.31.86,1.48,1.65,2.98,2.36,4.51-.71,1.52-1.5,3.03-2.35,4.51-.88,1.53-1.79,2.98-2.73,4.33-1.69.15-3.39.23-5.12.23s-3.42-.08-5.1-.21c-.94-1.35-1.86-2.79-2.74-4.31-.86-1.48-1.65-2.98-2.36-4.51.7-1.52,1.5-3.04,2.35-4.52.88-1.53,1.79-2.98,2.73-4.32,1.69-.15,3.39-.23,5.12-.23h0ZM42.45,27.42c1.07,1.11,2.1,2.29,3.07,3.52l.07.1c-1.02-.05-2.06-.08-3.11-.08s-2.12.02-3.15.08c1.03-1.33,2.05-2.51,3.13-3.64h-.01s0,.02,0,.02ZM31.15,20.34c3.8.7,7.08,2.59,9.5,5.26h.01c-1.63,1.73-3.16,3.57-4.57,5.51l-.11.16c-2.73.28-5.18.72-7.57,1.32l.36-.08c-.26-1.13-.45-2.23-.59-3.29-.53-4.32.12-7.69,1.65-8.58.38-.18.83-.29,1.3-.31h0,0ZM53.77,20.31h0s.05.01.08.01c.44,0,.86.11,1.23.3h-.01c1.54.88,2.21,4.24,1.69,8.57-.12,1.07-.33,2.19-.58,3.33-2.01-.52-4.46-.95-6.95-1.22l-.24-.02c-1.53-2.1-3.08-3.95-4.73-5.69l.02.02c2.43-2.7,5.7-4.61,9.4-5.3l.1-.02h0ZM53.78,17.79c-4.52.69-8.44,2.88-11.3,6.05v.02c-2.9-3.17-6.81-5.35-11.22-6.01l-.1-.03h-.1c-.91,0-1.76.24-2.5.66h.03c-3.18,1.82-3.89,7.53-2.25,14.7-7.03,2.17-11.61,5.65-11.61,9.31s4.6,7.16,11.65,9.31c-1.63,7.19-.9,12.91,2.28,14.74.7.4,1.54.64,2.43.64.04,0,.08,0,.12,0h0s8.44-2.79,11.3-5.96v-.02c2.9,3.17,6.81,5.35,11.22,6.01l.1.04h.09c.91,0,1.76-.24,2.49-.65h-.03c3.18-1.82,3.9-7.55,2.26-14.74,7.03-2.16,11.62-5.65,11.62-9.33s-4.61-7.18-11.69-9.35c1.63-7.21.9-12.95-2.29-14.79-.71-.41-1.56-.65-2.46-.65h-.06,0v.04ZM47.65,42.54c0,2.86-2.32,5.18-5.18,5.18s-5.18-2.32-5.18-5.18,2.32-5.18,5.18-5.18c1.43,0,2.72.58,3.66,1.52h0c.94.94,1.52,2.23,1.52,3.66h0Z"/>
    </g>
  </g>
</svg>