<svg xmlns="http://www.w3.org/2000/svg" xmlns:xlink="http://www.w3.org/1999/xlink" width="250" zoomAndPan="magnify" viewBox="0 0 187.5 74.999997" height="100" preserveAspectRatio="xMidYMid meet" version="1.2"><defs><clipPath id="1892facb7d"><path d="M 7 0.539062 L 74 0.539062 L 74 38 L 7 38 Z M 7 0.539062 "/></clipPath><clipPath id="5e6989875b"><path d="M 0 0.539062 L 37 0.539062 L 37 67 L 0 67 Z M 0 0.539062 "/></clipPath><clipPath id="b27aa0f641"><path d="M 0 37 L 67 37 L 67 74.589844 L 0 74.589844 Z M 0 37 "/></clipPath></defs><g id="f444330ca7"><g clip-rule="nonzero" clip-path="url(#1892facb7d)"><path style=" stroke:none;fill-rule:nonzero;fill:#ffffff;fill-opacity:1;" d="M 73.914062 37.441406 L 73.875 35.859375 L 73.875 5.953125 L 65.605469 14.222656 C 58.839844 5.9375 48.542969 0.644531 37.015625 0.644531 C 25.003906 0.644531 14.351562 6.375 7.613281 15.246094 L 21.167969 28.941406 C 22.511719 26.457031 24.34375 24.402344 26.65625 22.78125 C 29.023438 20.933594 32.375 19.425781 37.015625 19.425781 C 37.574219 19.425781 38.007812 19.492188 38.324219 19.613281 C 44.070312 20.066406 49.050781 23.238281 51.984375 27.839844 L 42.390625 37.433594 L 73.914062 37.441406 "/></g><g clip-rule="nonzero" clip-path="url(#5e6989875b)"><path style=" stroke:none;fill-rule:nonzero;fill:#ff5757;fill-opacity:1;" d="M 36.796875 0.648438 L 35.214844 0.6875 L 5.304688 0.6875 L 13.574219 8.953125 C 5.289062 15.722656 0 26.015625 0 37.546875 C 0 49.558594 5.726562 60.210938 14.597656 66.949219 L 28.292969 53.394531 C 25.808594 52.050781 23.753906 50.21875 22.132812 47.90625 C 20.285156 45.539062 18.777344 42.1875 18.777344 37.546875 C 18.777344 36.988281 18.84375 36.554688 18.964844 36.238281 C 19.421875 30.492188 22.59375 25.511719 27.195312 22.578125 L 36.789062 32.171875 L 36.792969 0.648438 "/></g><g clip-rule="nonzero" clip-path="url(#b27aa0f641)"><path style=" stroke:none;fill-rule:nonzero;fill:#ffffff;fill-opacity:1;" d="M 0 37.546875 L 0.0390625 39.128906 L 0.0390625 69.039062 L 8.308594 60.769531 C 15.074219 69.054688 25.371094 74.34375 36.902344 74.34375 C 48.914062 74.34375 59.5625 68.617188 66.304688 59.746094 L 52.75 46.050781 C 51.40625 48.535156 49.574219 50.589844 47.261719 52.210938 C 44.890625 54.058594 41.539062 55.566406 36.902344 55.566406 C 36.34375 55.566406 35.910156 55.5 35.59375 55.378906 C 29.84375 54.921875 24.867188 51.75 21.933594 47.148438 L 31.527344 37.554688 C 19.375 37.601562 5.65625 37.632812 0.00390625 37.550781 "/></g><g style="fill:#ffffff;fill-opacity:1;"><g transform="translate(78.374357, 29.411636)"><path style="stroke:none" d="M 6.5625 -5.96875 C 6.5625 -5.257812 6.320312 -4.671875 5.84375 -4.203125 C 5.363281 -3.742188 4.632812 -3.515625 3.65625 -3.515625 L 2.03125 -3.515625 L 2.03125 0 L 0.9375 0 L 0.9375 -8.421875 L 3.65625 -8.421875 C 4.601562 -8.421875 5.320312 -8.191406 5.8125 -7.734375 C 6.3125 -7.273438 6.5625 -6.6875 6.5625 -5.96875 Z M 3.65625 -4.421875 C 4.269531 -4.421875 4.71875 -4.550781 5 -4.8125 C 5.289062 -5.082031 5.4375 -5.46875 5.4375 -5.96875 C 5.4375 -7 4.84375 -7.515625 3.65625 -7.515625 L 2.03125 -7.515625 L 2.03125 -4.421875 Z M 3.65625 -4.421875 "/></g></g><g style="fill:#ffffff;fill-opacity:1;"><g transform="translate(85.374683, 29.411636)"><path style="stroke:none" d="M 2.03125 -5.546875 C 2.226562 -5.929688 2.503906 -6.226562 2.859375 -6.4375 C 3.210938 -6.644531 3.648438 -6.75 4.171875 -6.75 L 4.171875 -5.609375 L 3.875 -5.609375 C 2.644531 -5.609375 2.03125 -4.941406 2.03125 -3.609375 L 2.03125 0 L 0.9375 0 L 0.9375 -6.625 L 2.03125 -6.625 Z M 2.03125 -5.546875 "/></g></g><g style="fill:#ffffff;fill-opacity:1;"><g transform="translate(89.884398, 29.411636)"><path style="stroke:none" d="M 3.828125 0.109375 C 3.203125 0.109375 2.632812 -0.03125 2.125 -0.3125 C 1.625 -0.59375 1.226562 -0.992188 0.9375 -1.515625 C 0.65625 -2.035156 0.515625 -2.640625 0.515625 -3.328125 C 0.515625 -4.003906 0.660156 -4.601562 0.953125 -5.125 C 1.253906 -5.644531 1.65625 -6.039062 2.15625 -6.3125 C 2.664062 -6.59375 3.238281 -6.734375 3.875 -6.734375 C 4.5 -6.734375 5.066406 -6.59375 5.578125 -6.3125 C 6.085938 -6.039062 6.488281 -5.644531 6.78125 -5.125 C 7.070312 -4.613281 7.21875 -4.015625 7.21875 -3.328125 C 7.21875 -2.640625 7.066406 -2.035156 6.765625 -1.515625 C 6.460938 -0.992188 6.050781 -0.59375 5.53125 -0.3125 C 5.019531 -0.03125 4.453125 0.109375 3.828125 0.109375 Z M 3.828125 -0.859375 C 4.222656 -0.859375 4.59375 -0.953125 4.9375 -1.140625 C 5.28125 -1.328125 5.554688 -1.601562 5.765625 -1.96875 C 5.984375 -2.34375 6.09375 -2.796875 6.09375 -3.328125 C 6.09375 -3.859375 5.988281 -4.304688 5.78125 -4.671875 C 5.570312 -5.046875 5.296875 -5.320312 4.953125 -5.5 C 4.617188 -5.6875 4.253906 -5.78125 3.859375 -5.78125 C 3.453125 -5.78125 3.082031 -5.6875 2.75 -5.5 C 2.414062 -5.320312 2.144531 -5.046875 1.9375 -4.671875 C 1.738281 -4.304688 1.640625 -3.859375 1.640625 -3.328125 C 1.640625 -2.785156 1.738281 -2.328125 1.9375 -1.953125 C 2.132812 -1.585938 2.398438 -1.3125 2.734375 -1.125 C 3.066406 -0.945312 3.429688 -0.859375 3.828125 -0.859375 Z M 3.828125 -0.859375 "/></g></g><g style="fill:#ffffff;fill-opacity:1;"><g transform="translate(97.62224, 29.411636)"><path style="stroke:none" d="M 2.28125 -5.71875 L 2.28125 -1.8125 C 2.28125 -1.488281 2.347656 -1.257812 2.484375 -1.125 C 2.617188 -1 2.851562 -0.9375 3.1875 -0.9375 L 4 -0.9375 L 4 0 L 3.015625 0 C 2.398438 0 1.9375 -0.140625 1.625 -0.421875 C 1.320312 -0.703125 1.171875 -1.164062 1.171875 -1.8125 L 1.171875 -5.71875 L 0.3125 -5.71875 L 0.3125 -6.625 L 1.171875 -6.625 L 1.171875 -8.296875 L 2.28125 -8.296875 L 2.28125 -6.625 L 4 -6.625 L 4 -5.71875 Z M 2.28125 -5.71875 "/></g></g><g style="fill:#ffffff;fill-opacity:1;"><g transform="translate(102.02314, 29.411636)"><path style="stroke:none" d="M 6.984375 -3.5625 C 6.984375 -3.351562 6.96875 -3.132812 6.9375 -2.90625 L 1.640625 -2.90625 C 1.679688 -2.25 1.90625 -1.738281 2.3125 -1.375 C 2.71875 -1.007812 3.210938 -0.828125 3.796875 -0.828125 C 4.273438 -0.828125 4.671875 -0.9375 4.984375 -1.15625 C 5.304688 -1.375 5.53125 -1.671875 5.65625 -2.046875 L 6.84375 -2.046875 C 6.664062 -1.410156 6.3125 -0.890625 5.78125 -0.484375 C 5.25 -0.0859375 4.585938 0.109375 3.796875 0.109375 C 3.171875 0.109375 2.609375 -0.03125 2.109375 -0.3125 C 1.609375 -0.59375 1.21875 -0.992188 0.9375 -1.515625 C 0.65625 -2.035156 0.515625 -2.640625 0.515625 -3.328125 C 0.515625 -4.015625 0.648438 -4.613281 0.921875 -5.125 C 1.203125 -5.644531 1.585938 -6.039062 2.078125 -6.3125 C 2.578125 -6.59375 3.148438 -6.734375 3.796875 -6.734375 C 4.421875 -6.734375 4.972656 -6.59375 5.453125 -6.3125 C 5.941406 -6.039062 6.316406 -5.664062 6.578125 -5.1875 C 6.847656 -4.707031 6.984375 -4.164062 6.984375 -3.5625 Z M 5.84375 -3.796875 C 5.84375 -4.210938 5.75 -4.570312 5.5625 -4.875 C 5.375 -5.175781 5.117188 -5.40625 4.796875 -5.5625 C 4.484375 -5.726562 4.132812 -5.8125 3.75 -5.8125 C 3.195312 -5.8125 2.722656 -5.628906 2.328125 -5.265625 C 1.929688 -4.910156 1.707031 -4.421875 1.65625 -3.796875 Z M 5.84375 -3.796875 "/></g></g><g style="fill:#ffffff;fill-opacity:1;"><g transform="translate(109.519177, 29.411636)"><path style="stroke:none" d="M 0.515625 -3.328125 C 0.515625 -4.015625 0.648438 -4.613281 0.921875 -5.125 C 1.203125 -5.632812 1.585938 -6.03125 2.078125 -6.3125 C 2.566406 -6.59375 3.125 -6.734375 3.75 -6.734375 C 4.5625 -6.734375 5.234375 -6.535156 5.765625 -6.140625 C 6.296875 -5.742188 6.644531 -5.195312 6.8125 -4.5 L 5.625 -4.5 C 5.507812 -4.90625 5.285156 -5.222656 4.953125 -5.453125 C 4.628906 -5.691406 4.226562 -5.8125 3.75 -5.8125 C 3.125 -5.8125 2.613281 -5.59375 2.21875 -5.15625 C 1.832031 -4.726562 1.640625 -4.117188 1.640625 -3.328125 C 1.640625 -2.523438 1.832031 -1.90625 2.21875 -1.46875 C 2.613281 -1.039062 3.125 -0.828125 3.75 -0.828125 C 4.226562 -0.828125 4.628906 -0.9375 4.953125 -1.15625 C 5.273438 -1.382812 5.5 -1.707031 5.625 -2.125 L 6.8125 -2.125 C 6.632812 -1.445312 6.28125 -0.90625 5.75 -0.5 C 5.21875 -0.09375 4.550781 0.109375 3.75 0.109375 C 3.125 0.109375 2.566406 -0.03125 2.078125 -0.3125 C 1.585938 -0.59375 1.203125 -0.988281 0.921875 -1.5 C 0.648438 -2.019531 0.515625 -2.628906 0.515625 -3.328125 Z M 0.515625 -3.328125 "/></g></g><g style="fill:#ffffff;fill-opacity:1;"><g transform="translate(116.858039, 29.411636)"><path style="stroke:none" d="M 2.28125 -5.71875 L 2.28125 -1.8125 C 2.28125 -1.488281 2.347656 -1.257812 2.484375 -1.125 C 2.617188 -1 2.851562 -0.9375 3.1875 -0.9375 L 4 -0.9375 L 4 0 L 3.015625 0 C 2.398438 0 1.9375 -0.140625 1.625 -0.421875 C 1.320312 -0.703125 1.171875 -1.164062 1.171875 -1.8125 L 1.171875 -5.71875 L 0.3125 -5.71875 L 0.3125 -6.625 L 1.171875 -6.625 L 1.171875 -8.296875 L 2.28125 -8.296875 L 2.28125 -6.625 L 4 -6.625 L 4 -5.71875 Z M 2.28125 -5.71875 "/></g></g><g style="fill:#ffffff;fill-opacity:1;"><g transform="translate(121.258939, 29.411636)"><path style="stroke:none" d="M 6.984375 -3.5625 C 6.984375 -3.351562 6.96875 -3.132812 6.9375 -2.90625 L 1.640625 -2.90625 C 1.679688 -2.25 1.90625 -1.738281 2.3125 -1.375 C 2.71875 -1.007812 3.210938 -0.828125 3.796875 -0.828125 C 4.273438 -0.828125 4.671875 -0.9375 4.984375 -1.15625 C 5.304688 -1.375 5.53125 -1.671875 5.65625 -2.046875 L 6.84375 -2.046875 C 6.664062 -1.410156 6.3125 -0.890625 5.78125 -0.484375 C 5.25 -0.0859375 4.585938 0.109375 3.796875 0.109375 C 3.171875 0.109375 2.609375 -0.03125 2.109375 -0.3125 C 1.609375 -0.59375 1.21875 -0.992188 0.9375 -1.515625 C 0.65625 -2.035156 0.515625 -2.640625 0.515625 -3.328125 C 0.515625 -4.015625 0.648438 -4.613281 0.921875 -5.125 C 1.203125 -5.644531 1.585938 -6.039062 2.078125 -6.3125 C 2.578125 -6.59375 3.148438 -6.734375 3.796875 -6.734375 C 4.421875 -6.734375 4.972656 -6.59375 5.453125 -6.3125 C 5.941406 -6.039062 6.316406 -5.664062 6.578125 -5.1875 C 6.847656 -4.707031 6.984375 -4.164062 6.984375 -3.5625 Z M 5.84375 -3.796875 C 5.84375 -4.210938 5.75 -4.570312 5.5625 -4.875 C 5.375 -5.175781 5.117188 -5.40625 4.796875 -5.5625 C 4.484375 -5.726562 4.132812 -5.8125 3.75 -5.8125 C 3.195312 -5.8125 2.722656 -5.628906 2.328125 -5.265625 C 1.929688 -4.910156 1.707031 -4.421875 1.65625 -3.796875 Z M 5.84375 -3.796875 "/></g></g><g style="fill:#ffffff;fill-opacity:1;"><g transform="translate(128.754976, 29.411636)"><path style="stroke:none" d="M 0.515625 -3.34375 C 0.515625 -4.019531 0.648438 -4.613281 0.921875 -5.125 C 1.203125 -5.632812 1.582031 -6.03125 2.0625 -6.3125 C 2.539062 -6.59375 3.078125 -6.734375 3.671875 -6.734375 C 4.191406 -6.734375 4.671875 -6.613281 5.109375 -6.375 C 5.554688 -6.132812 5.894531 -5.820312 6.125 -5.4375 L 6.125 -8.953125 L 7.25 -8.953125 L 7.25 0 L 6.125 0 L 6.125 -1.25 C 5.914062 -0.851562 5.59375 -0.523438 5.15625 -0.265625 C 4.726562 -0.015625 4.234375 0.109375 3.671875 0.109375 C 3.078125 0.109375 2.539062 -0.0351562 2.0625 -0.328125 C 1.582031 -0.617188 1.203125 -1.023438 0.921875 -1.546875 C 0.648438 -2.066406 0.515625 -2.664062 0.515625 -3.34375 Z M 6.125 -3.328125 C 6.125 -3.828125 6.023438 -4.257812 5.828125 -4.625 C 5.628906 -5 5.359375 -5.285156 5.015625 -5.484375 C 4.671875 -5.679688 4.289062 -5.78125 3.875 -5.78125 C 3.46875 -5.78125 3.09375 -5.679688 2.75 -5.484375 C 2.414062 -5.296875 2.144531 -5.015625 1.9375 -4.640625 C 1.738281 -4.273438 1.640625 -3.84375 1.640625 -3.34375 C 1.640625 -2.832031 1.738281 -2.390625 1.9375 -2.015625 C 2.144531 -1.640625 2.414062 -1.351562 2.75 -1.15625 C 3.09375 -0.957031 3.46875 -0.859375 3.875 -0.859375 C 4.289062 -0.859375 4.671875 -0.957031 5.015625 -1.15625 C 5.359375 -1.351562 5.628906 -1.640625 5.828125 -2.015625 C 6.023438 -2.390625 6.125 -2.828125 6.125 -3.328125 Z M 6.125 -3.328125 "/></g></g><g style="fill:#ffffff;fill-opacity:1;"><g transform="translate(136.928076, 29.411636)"><path style="stroke:none" d=""/></g></g><g style="fill:#ffffff;fill-opacity:1;"><g transform="translate(140.156203, 29.411636)"><path style="stroke:none" d="M 2.03125 -5.390625 C 2.257812 -5.785156 2.585938 -6.109375 3.015625 -6.359375 C 3.453125 -6.609375 3.953125 -6.734375 4.515625 -6.734375 C 5.109375 -6.734375 5.640625 -6.59375 6.109375 -6.3125 C 6.585938 -6.03125 6.960938 -5.632812 7.234375 -5.125 C 7.515625 -4.613281 7.65625 -4.019531 7.65625 -3.34375 C 7.65625 -2.664062 7.515625 -2.066406 7.234375 -1.546875 C 6.960938 -1.023438 6.585938 -0.617188 6.109375 -0.328125 C 5.628906 -0.0351562 5.097656 0.109375 4.515625 0.109375 C 3.941406 0.109375 3.4375 -0.015625 3 -0.265625 C 2.570312 -0.515625 2.25 -0.832031 2.03125 -1.21875 L 2.03125 0 L 0.9375 0 L 0.9375 -8.953125 L 2.03125 -8.953125 Z M 6.53125 -3.34375 C 6.53125 -3.84375 6.425781 -4.273438 6.21875 -4.640625 C 6.019531 -5.015625 5.75 -5.296875 5.40625 -5.484375 C 5.0625 -5.679688 4.6875 -5.78125 4.28125 -5.78125 C 3.875 -5.78125 3.5 -5.679688 3.15625 -5.484375 C 2.820312 -5.285156 2.550781 -5 2.34375 -4.625 C 2.132812 -4.25 2.03125 -3.816406 2.03125 -3.328125 C 2.03125 -2.828125 2.132812 -2.390625 2.34375 -2.015625 C 2.550781 -1.640625 2.820312 -1.351562 3.15625 -1.15625 C 3.5 -0.957031 3.875 -0.859375 4.28125 -0.859375 C 4.6875 -0.859375 5.0625 -0.957031 5.40625 -1.15625 C 5.75 -1.351562 6.019531 -1.640625 6.21875 -2.015625 C 6.425781 -2.390625 6.53125 -2.832031 6.53125 -3.34375 Z M 6.53125 -3.34375 "/></g></g><g style="fill:#ffffff;fill-opacity:1;"><g transform="translate(148.329302, 29.411636)"><path style="stroke:none" d="M 6.640625 -6.625 L 2.65625 3.125 L 1.515625 3.125 L 2.8125 -0.078125 L 0.140625 -6.625 L 1.359375 -6.625 L 3.453125 -1.25 L 5.5 -6.625 Z M 6.640625 -6.625 "/></g></g><g style="fill:#ffffff;fill-opacity:1;"><g transform="translate(78.374357, 49.063221)"><path style="stroke:none" d="M 4.234375 -8.4375 C 4.585938 -8.988281 5.035156 -9.425781 5.578125 -9.75 C 6.128906 -10.070312 6.738281 -10.234375 7.40625 -10.234375 L 7.40625 -6.953125 L 6.546875 -6.953125 C 5.773438 -6.953125 5.195312 -6.785156 4.8125 -6.453125 C 4.425781 -6.117188 4.234375 -5.535156 4.234375 -4.703125 L 4.234375 0 L 1.125 0 L 1.125 -10.125 L 4.234375 -10.125 Z M 4.234375 -8.4375 "/></g></g><g style="fill:#ffffff;fill-opacity:1;"><g transform="translate(86.138261, 49.063221)"><path style="stroke:none" d="M 10.671875 -5.21875 C 10.671875 -4.9375 10.648438 -4.632812 10.609375 -4.3125 L 3.59375 -4.3125 C 3.644531 -3.6875 3.847656 -3.207031 4.203125 -2.875 C 4.554688 -2.539062 4.992188 -2.375 5.515625 -2.375 C 6.285156 -2.375 6.820312 -2.703125 7.125 -3.359375 L 10.4375 -3.359375 C 10.257812 -2.691406 9.953125 -2.09375 9.515625 -1.5625 C 9.078125 -1.03125 8.523438 -0.613281 7.859375 -0.3125 C 7.191406 -0.0078125 6.445312 0.140625 5.625 0.140625 C 4.632812 0.140625 3.75 -0.0664062 2.96875 -0.484375 C 2.195312 -0.910156 1.59375 -1.515625 1.15625 -2.296875 C 0.726562 -3.085938 0.515625 -4.007812 0.515625 -5.0625 C 0.515625 -6.113281 0.726562 -7.03125 1.15625 -7.8125 C 1.582031 -8.601562 2.179688 -9.207031 2.953125 -9.625 C 3.734375 -10.050781 4.625 -10.265625 5.625 -10.265625 C 6.601562 -10.265625 7.472656 -10.054688 8.234375 -9.640625 C 8.992188 -9.234375 9.585938 -8.648438 10.015625 -7.890625 C 10.453125 -7.128906 10.671875 -6.238281 10.671875 -5.21875 Z M 7.484375 -6.046875 C 7.484375 -6.578125 7.300781 -7 6.9375 -7.3125 C 6.582031 -7.625 6.132812 -7.78125 5.59375 -7.78125 C 5.070312 -7.78125 4.628906 -7.628906 4.265625 -7.328125 C 3.910156 -7.023438 3.691406 -6.597656 3.609375 -6.046875 Z M 7.484375 -6.046875 "/></g></g><g style="fill:#ffffff;fill-opacity:1;"><g transform="translate(97.312474, 49.063221)"><path style="stroke:none" d="M 0.59375 -6.390625 C 0.59375 -7.640625 0.863281 -8.757812 1.40625 -9.75 C 1.957031 -10.738281 2.71875 -11.503906 3.6875 -12.046875 C 4.664062 -12.597656 5.769531 -12.875 7 -12.875 C 8.507812 -12.875 9.800781 -12.472656 10.875 -11.671875 C 11.957031 -10.878906 12.679688 -9.796875 13.046875 -8.421875 L 9.625 -8.421875 C 9.375 -8.953125 9.015625 -9.351562 8.546875 -9.625 C 8.085938 -9.90625 7.5625 -10.046875 6.96875 -10.046875 C 6.007812 -10.046875 5.234375 -9.710938 4.640625 -9.046875 C 4.046875 -8.378906 3.75 -7.492188 3.75 -6.390625 C 3.75 -5.273438 4.046875 -4.382812 4.640625 -3.71875 C 5.234375 -3.050781 6.007812 -2.71875 6.96875 -2.71875 C 7.5625 -2.71875 8.085938 -2.859375 8.546875 -3.140625 C 9.015625 -3.421875 9.375 -3.828125 9.625 -4.359375 L 13.046875 -4.359375 C 12.679688 -2.972656 11.957031 -1.882812 10.875 -1.09375 C 9.800781 -0.300781 8.507812 0.09375 7 0.09375 C 5.769531 0.09375 4.664062 -0.179688 3.6875 -0.734375 C 2.71875 -1.285156 1.957031 -2.050781 1.40625 -3.03125 C 0.863281 -4.007812 0.59375 -5.128906 0.59375 -6.390625 Z M 0.59375 -6.390625 "/></g></g><g style="fill:#ffffff;fill-opacity:1;"><g transform="translate(111.135122, 49.063221)"><path style="stroke:none" d="M 9.046875 -2.25 L 4.296875 -2.25 L 3.53125 0 L 0.296875 0 L 4.890625 -12.734375 L 8.484375 -12.734375 L 13.09375 0 L 9.8125 0 Z M 8.25 -4.640625 L 6.671875 -9.3125 L 5.109375 -4.640625 Z M 8.25 -4.640625 "/></g></g><g style="fill:#ffffff;fill-opacity:1;"><g transform="translate(124.504271, 49.063221)"><path style="stroke:none" d="M 10.828125 -8.640625 C 10.828125 -7.898438 10.65625 -7.222656 10.3125 -6.609375 C 9.976562 -6.003906 9.457031 -5.515625 8.75 -5.140625 C 8.050781 -4.765625 7.1875 -4.578125 6.15625 -4.578125 L 4.234375 -4.578125 L 4.234375 0 L 1.125 0 L 1.125 -12.734375 L 6.15625 -12.734375 C 7.164062 -12.734375 8.019531 -12.554688 8.71875 -12.203125 C 9.425781 -11.859375 9.953125 -11.375 10.296875 -10.75 C 10.648438 -10.132812 10.828125 -9.429688 10.828125 -8.640625 Z M 5.90625 -7.03125 C 6.5 -7.03125 6.941406 -7.171875 7.234375 -7.453125 C 7.523438 -7.734375 7.671875 -8.128906 7.671875 -8.640625 C 7.671875 -9.140625 7.523438 -9.53125 7.234375 -9.8125 C 6.941406 -10.09375 6.5 -10.234375 5.90625 -10.234375 L 4.234375 -10.234375 L 4.234375 -7.03125 Z M 5.90625 -7.03125 "/></g></g><g style="fill:#ffffff;fill-opacity:1;"><g transform="translate(135.82361, 49.063221)"><path style="stroke:none" d="M 10.28125 -12.734375 L 10.28125 -10.25 L 6.90625 -10.25 L 6.90625 0 L 3.8125 0 L 3.8125 -10.25 L 0.4375 -10.25 L 0.4375 -12.734375 Z M 10.28125 -12.734375 "/></g></g><g style="fill:#ffffff;fill-opacity:1;"><g transform="translate(146.544323, 49.063221)"><path style="stroke:none" d="M 0.59375 -6.390625 C 0.59375 -7.640625 0.863281 -8.757812 1.40625 -9.75 C 1.957031 -10.738281 2.71875 -11.503906 3.6875 -12.046875 C 4.664062 -12.597656 5.769531 -12.875 7 -12.875 C 8.507812 -12.875 9.800781 -12.472656 10.875 -11.671875 C 11.957031 -10.878906 12.679688 -9.796875 13.046875 -8.421875 L 9.625 -8.421875 C 9.375 -8.953125 9.015625 -9.351562 8.546875 -9.625 C 8.085938 -9.90625 7.5625 -10.046875 6.96875 -10.046875 C 6.007812 -10.046875 5.234375 -9.710938 4.640625 -9.046875 C 4.046875 -8.378906 3.75 -7.492188 3.75 -6.390625 C 3.75 -5.273438 4.046875 -4.382812 4.640625 -3.71875 C 5.234375 -3.050781 6.007812 -2.71875 6.96875 -2.71875 C 7.5625 -2.71875 8.085938 -2.859375 8.546875 -3.140625 C 9.015625 -3.421875 9.375 -3.828125 9.625 -4.359375 L 13.046875 -4.359375 C 12.679688 -2.972656 11.957031 -1.882812 10.875 -1.09375 C 9.800781 -0.300781 8.507812 0.09375 7 0.09375 C 5.769531 0.09375 4.664062 -0.179688 3.6875 -0.734375 C 2.71875 -1.285156 1.957031 -2.050781 1.40625 -3.03125 C 0.863281 -4.007812 0.59375 -5.128906 0.59375 -6.390625 Z M 0.59375 -6.390625 "/></g></g><g style="fill:#ffffff;fill-opacity:1;"><g transform="translate(160.366971, 49.063221)"><path style="stroke:none" d="M 12.15625 -12.734375 L 12.15625 0 L 9.046875 0 L 9.046875 -5.25 L 4.234375 -5.25 L 4.234375 0 L 1.125 0 L 1.125 -12.734375 L 4.234375 -12.734375 L 4.234375 -7.75 L 9.046875 -7.75 L 9.046875 -12.734375 Z M 12.15625 -12.734375 "/></g></g><g style="fill:#ffffff;fill-opacity:1;"><g transform="translate(173.62728, 49.063221)"><path style="stroke:none" d="M 9.046875 -2.25 L 4.296875 -2.25 L 3.53125 0 L 0.296875 0 L 4.890625 -12.734375 L 8.484375 -12.734375 L 13.09375 0 L 9.8125 0 Z M 8.25 -4.640625 L 6.671875 -9.3125 L 5.109375 -4.640625 Z M 8.25 -4.640625 "/></g></g></g></svg>