<?xml version="1.0" encoding="UTF-8"?>
<svg id="Layer_2" data-name="Layer 2" xmlns="http://www.w3.org/2000/svg" viewBox="0 0 85 85">
  <defs>
    <style>
      .cls-1 {
        fill: #1f9cf0;
      }

      .cls-1, .cls-2, .cls-3, .cls-4 {
        stroke-width: 0px;
      }

      .cls-2 {
        fill: #061c28;
      }

      .cls-3 {
        fill: #007acc;
      }

      .cls-4 {
        fill: #0065a9;
      }
    </style>
  </defs>
  <g id="Apps">
    <g>
      <rect class="cls-2" width="85" height="85" rx="12" ry="12"/>
      <g>
        <path class="cls-4" d="M66.23,22.95l-10.31-4.96c-1.19-.58-2.62-.33-3.56.6l-33.74,30.76c-.85.77-.92,2.09-.14,2.94.04.05.09.09.14.14l2.75,2.5c.74.68,1.86.73,2.66.12l40.64-30.82c.91-.69,2.21-.51,2.9.4.27.36.42.8.42,1.25v-.12c0-1.2-.69-2.3-1.77-2.82Z"/>
        <path class="cls-3" d="M66.23,62.17l-10.31,4.96c-1.19.57-2.62.33-3.56-.6l-33.74-30.77c-.85-.77-.92-2.09-.14-2.94.04-.05.09-.09.14-.14l2.75-2.5c.74-.68,1.87-.73,2.67-.12l40.64,30.82c.91.69,2.21.51,2.9-.4.27-.36.42-.8.42-1.25v.13c0,1.2-.69,2.29-1.77,2.81Z"/>
        <path class="cls-1" d="M55.92,67.14c-1.19.57-2.62.33-3.56-.6.72.71,1.88.7,2.59-.02.34-.34.53-.8.53-1.28V19.89c0-1.01-.82-1.83-1.83-1.83-.49,0-.95.19-1.3.54.94-.94,2.36-1.18,3.56-.61l10.31,4.96c1.09.52,1.78,1.61,1.78,2.82v33.61c0,1.2-.69,2.3-1.77,2.82l-10.31,4.95Z"/>
      </g>
    </g>
  </g>
</svg>