<svg width="24" height="24" viewBox="0 0 24 24" fill="none" xmlns="http://www.w3.org/2000/svg">
<path d="M16.5 3H7.5C5.0187 3 3 5.0187 3 7.5V16.5C3 18.9813 5.0187 21 7.5 21H12V13.5H10.95C10.5358 13.5 10.2 13.1642 10.2 12.75C10.2 12.3358 10.5358 12 10.95 12H12V10.6688C12 8.9215 13.4215 7.5 15.1688 7.5H16.8C17.2142 7.5 17.55 7.8358 17.55 8.25C17.55 8.6642 17.2142 9 16.8 9H15.1688C14.2486 9 13.5 9.7486 13.5 10.6688V12H16.5C16.9142 12 17.25 12.3358 17.25 12.75C17.25 13.1642 16.9142 13.5 16.5 13.5H13.5V21H16.5C18.9813 21 21 18.9813 21 16.5V7.5C21 5.0187 18.9813 3 16.5 3Z" fill="#212121"/>
</svg>
