<svg width="24" height="24" viewBox="0 0 24 24" fill="none" xmlns="http://www.w3.org/2000/svg">
<path d="M15.1688 9H16.8C17.2142 9 17.55 8.6642 17.55 8.25C17.55 7.8358 17.2142 7.5 16.8 7.5H15.1688C13.4215 7.5 12 8.9215 12 10.6688V12H10.95C10.5358 12 10.2 12.3358 10.2 12.75C10.2 13.1642 10.5358 13.5 10.95 13.5H12V19.8C12 20.2142 12.3358 20.55 12.75 20.55C13.1642 20.55 13.5 20.2142 13.5 19.8V13.5H16.5C16.9142 13.5 17.25 13.1642 17.25 12.75C17.25 12.3358 16.9142 12 16.5 12H13.5V10.6688C13.5 9.7486 14.2486 9 15.1688 9Z" fill="#212121"/>
<path d="M16.5 21H7.5C5.0187 21 3 18.9813 3 16.5V7.5C3 5.0187 5.0187 3 7.5 3H16.5C18.9813 3 21 5.0187 21 7.5V16.5C21 18.9813 18.9813 21 16.5 21ZM7.5 4.5C5.8458 4.5 4.5 5.8458 4.5 7.5V16.5C4.5 18.1542 5.8458 19.5 7.5 19.5H16.5C18.1542 19.5 19.5 18.1542 19.5 16.5V7.5C19.5 5.8458 18.1542 4.5 16.5 4.5H7.5Z" fill="#212121"/>
</svg>
