<svg width="24" height="24" viewBox="0 0 24 24" fill="none" xmlns="http://www.w3.org/2000/svg">
<path d="M12 2C6.4667 2 2 6.4988 2 12.0719C2 16.5371 4.8667 20.2973 8.8333 21.6235C9.3333 21.7074 9.5166 21.4053 9.5333 21.1535C9.5333 20.9185 9.5166 20.1127 9.5166 19.2734C7 19.7434 6.35 18.6523 6.15 18.0815C6.0333 17.7961 5.55 16.8897 5.1167 16.6714C4.7667 16.4867 4.2667 16.0167 5.1167 15.9999C5.9 15.9831 6.4667 16.7217 6.65 17.0407C7.55 18.5683 8.9833 18.1318 9.5667 17.8632C9.65 17.2085 9.9167 16.7721 10.2 16.5203C7.9833 16.2685 5.65 15.3956 5.65 11.5347C5.65 10.4436 6.0333 9.5371 6.6833 8.8321C6.5833 8.5803 6.2333 7.5395 6.7833 6.163C6.7833 6.163 7.6166 5.8944 9.5333 7.2038C10.3333 6.9856 11.1833 6.8681 12.0333 6.8513C12.8833 6.8513 13.7333 6.9688 14.5333 7.2038C16.45 5.8944 17.2833 6.163 17.2833 6.163C17.8333 7.5563 17.4833 8.5803 17.3666 8.8321C18 9.5372 18.4 10.4269 18.4 11.5348C18.4 15.3957 16.0667 16.2518 13.8333 16.5204C14.2 16.8393 14.5166 17.4437 14.5166 18.3837C14.5166 19.7266 14.4999 20.8178 14.4999 21.1535C14.4999 21.4221 14.6832 21.7242 15.1832 21.6235C19.2539 20.2413 21.9963 16.3986 21.9999 12.0719C22 6.4988 17.5333 2 12 2Z" fill="#212121"/>
</svg>
