<svg width="24" height="24" viewBox="0 0 24 24" fill="none" xmlns="http://www.w3.org/2000/svg">
<path d="M12 22C6.486 22 2 17.514 2 12C2 6.486 6.486 2 12 2C17.514 2 22 6.486 22 12C22 17.514 17.514 22 12 22ZM12 3.4286C7.2737 3.4286 3.4286 7.2737 3.4286 12C3.4286 16.7263 7.2737 20.5714 12 20.5714C16.7263 20.5714 20.5714 16.7263 20.5714 12C20.5714 7.2737 16.7263 3.4286 12 3.4286Z" fill="#212121"/>
<path d="M9.962 17.4989C9.962 18.1705 9.9755 19.9705 9.9755 20.1586C9.9664 20.2949 9.8951 20.4492 9.7249 20.5143C10.4384 20.7223 11.1925 20.836 11.9736 20.836C12.7531 20.836 13.5057 20.7228 14.218 20.5156C14.0623 20.4493 13.9988 20.2985 13.9988 20.1586C13.9988 19.8899 14.0123 17.8616 14.0123 16.787C14.0123 16.0348 13.7558 15.5512 13.4588 15.296C15.2679 15.0811 17.158 14.396 17.158 11.3065C17.158 10.4199 16.834 9.70801 16.3209 9.14381C16.4154 8.94231 16.6989 8.12291 16.2534 7.00801C16.2534 7.00801 15.5784 6.79311 14.0258 7.84081C13.3778 7.65271 12.6892 7.55871 12.0007 7.55871C11.3122 7.57211 10.6236 7.66621 9.9756 7.84081C8.423 6.79301 7.748 7.00801 7.748 7.00801C7.3025 8.10951 7.586 8.94231 7.667 9.14381C7.1405 9.70801 6.8299 10.4333 6.8299 11.3065C6.8299 14.396 8.72 15.0945 10.5156 15.296C10.2861 15.4975 10.0701 15.8467 10.0026 16.3706L9.962 17.4989Z" fill="#212121"/>
<path d="M10.0573 17.4132C9.44998 17.4943 8.78248 17.451 8.59918 16.9319C8.59578 16.9223 8.59218 16.9127 8.58828 16.9033C8.58418 16.8934 8.16488 15.9069 7.57728 15.613C7.28248 15.4657 6.92418 15.585 6.77688 15.8798C6.63078 16.1718 6.74688 16.5265 7.03588 16.6762C7.14888 16.7553 7.38788 17.1289 7.48028 17.3462C7.67108 17.8719 8.19188 18.6389 9.60408 18.6389C9.74118 18.6389 9.88698 18.6314 10.0414 18.6161" fill="#212121"/>
</svg>
