<svg width="24" height="24" viewBox="0 0 24 24" fill="none" xmlns="http://www.w3.org/2000/svg">
<path d="M12 21C7.0374 21 3 16.9626 3 12C3 7.0374 7.0374 3 12 3C14.0947 3 15.9979 3.7013 17.6569 5.0845C17.8084 5.2108 17.9016 5.3885 17.9194 5.5849C17.9372 5.7813 17.8774 5.9728 17.7511 6.1242C17.6105 6.2929 17.4037 6.3897 17.1837 6.3897C17.0115 6.3897 16.8437 6.3289 16.7114 6.2184C15.325 5.0625 13.7398 4.4764 12 4.4764C7.8515 4.4764 4.4764 7.8514 4.4764 12C4.4764 16.1486 7.8514 19.5236 12 19.5236C15.8364 19.5236 19.1148 16.5477 19.4877 12.7382H13.6661C13.2591 12.7382 12.9279 12.407 12.9279 12C12.9279 11.593 13.2591 11.2618 13.6661 11.2618H20.2618C20.6688 11.2618 21 11.593 21 12C21 16.9626 16.9626 21 12 21Z" fill="#212121"/>
</svg>
