<svg width="24" height="24" viewBox="0 0 24 24" fill="none" xmlns="http://www.w3.org/2000/svg">
<path d="M12 21.3C6.87201 21.3 2.70001 17.128 2.70001 12C2.70001 6.87201 6.87201 2.70001 12 2.70001C14.1696 2.70001 16.139 3.42481 17.8535 4.85421C18.1384 5.09181 18.3138 5.42611 18.3473 5.79551C18.3808 6.16501 18.2684 6.52541 18.0307 6.81041C17.7662 7.12771 17.3773 7.30981 16.9637 7.30981C16.6396 7.30981 16.3238 7.19541 16.0747 6.98761C14.8731 5.98571 13.5021 5.47771 12 5.47771C8.40361 5.47771 5.47771 8.40361 5.47771 12C5.47771 15.5964 8.40361 18.5223 12 18.5223C15.0273 18.5223 17.7243 16.332 18.3727 13.3888H13.5955C12.8297 13.3888 12.2066 12.7657 12.2066 11.9999C12.2066 11.2341 12.8297 10.611 13.5955 10.611H19.9112C20.677 10.611 21.3001 11.2341 21.3001 11.9999C21.3 17.128 17.128 21.3 12 21.3Z" fill="#212121"/>
</svg>
