<svg width="24" height="24" viewBox="0 0 24 24" fill="none" xmlns="http://www.w3.org/2000/svg">
<path d="M15.2864 12.0207C15.2864 13.8442 13.8028 15.3278 11.9793 15.3278C10.1558 15.3278 8.6722 13.8442 8.6722 12.0207C8.6722 10.1972 10.1558 8.7136 11.9793 8.7136C13.8028 8.7136 15.2864 10.1971 15.2864 12.0207ZM21 7.5V16.5C21 18.9813 18.9813 21 16.5 21H7.5C5.0187 21 3 18.9813 3 16.5V7.5C3 5.0187 5.0187 3 7.5 3H16.5C18.9813 3 21 5.0187 21 7.5ZM16.9086 12.0207C16.9086 9.3026 14.6974 7.0914 11.9793 7.0914C9.2612 7.0914 7.05 9.3026 7.05 12.0207C7.05 14.7388 9.2612 16.95 11.9793 16.95C14.6974 16.95 16.9086 14.7388 16.9086 12.0207ZM18.75 6.4218C18.75 5.7747 18.2253 5.25 17.5782 5.25C16.9311 5.25 16.4064 5.7747 16.4064 6.4218C16.4064 7.0689 16.9311 7.5936 17.5782 7.5936C18.2253 7.5935 18.75 7.0689 18.75 6.4218Z" fill="#212121"/>
</svg>
