<svg width="24" height="24" viewBox="0 0 24 24" fill="none" xmlns="http://www.w3.org/2000/svg">
<path d="M16.5 21H7.5C5.0187 21 3 18.9813 3 16.5V7.5C3 5.0187 5.0187 3 7.5 3H16.5C18.9813 3 21 5.0187 21 7.5V16.5C21 18.9813 18.9813 21 16.5 21ZM7.5 4.5C5.8458 4.5 4.5 5.8458 4.5 7.5V16.5C4.5 18.1542 5.8458 19.5 7.5 19.5H16.5C18.1542 19.5 19.5 18.1542 19.5 16.5V7.5C19.5 5.8458 18.1542 4.5 16.5 4.5H7.5Z" fill="#212121"/>
<path d="M12 16.35C9.60142 16.35 7.65002 14.3986 7.65002 12C7.65002 9.60139 9.60142 7.64999 12 7.64999C14.3986 7.64999 16.35 9.60139 16.35 12C16.35 14.3986 14.3986 16.35 12 16.35ZM12 9.08159C10.3908 9.08159 9.08162 10.3908 9.08162 12C9.08162 13.6092 10.3908 14.9184 12 14.9184C13.6092 14.9184 14.9184 13.6092 14.9184 12C14.9184 10.3908 13.6092 9.08159 12 9.08159Z" fill="#212121"/>
<path d="M16.95 8.1C17.5299 8.1 18 7.6299 18 7.05C18 6.4701 17.5299 6 16.95 6C16.3701 6 15.9 6.4701 15.9 7.05C15.9 7.6299 16.3701 8.1 16.95 8.1Z" fill="#212121"/>
</svg>
