<svg width="24" height="24" viewBox="0 0 24 24" fill="none" xmlns="http://www.w3.org/2000/svg">
<path d="M16.5 3H7.5C5.0187 3 3 5.0187 3 7.5V16.5C3 18.9813 5.0187 21 7.5 21H8.2H12H13.5H16.5C18.9813 21 21 18.9813 21 16.5V7.5C21 5.0187 18.9813 3 16.5 3ZM9 15.75C9 16.1642 8.6642 16.5 8.25 16.5C7.8358 16.5 7.5 16.1642 7.5 15.75V10.4322C7.5 10.018 7.8358 9.6822 8.25 9.6822C8.6642 9.6822 9 10.018 9 10.4322V15.75ZM9 8.1C9 8.5142 8.6642 8.85 8.25 8.85C7.8358 8.85 7.5 8.5142 7.5 8.1V7.95C7.5 7.5358 7.8358 7.2 8.25 7.2C8.6642 7.2 9 7.5358 9 7.95V8.1ZM16.5 15.75C16.5 16.1642 16.1642 16.5 15.75 16.5C15.3358 16.5 15 16.1642 15 15.75V12.5363C15 11.8231 14.7042 11.3559 14.1886 11.2546C13.5039 11.1201 12.5417 11.6425 12.0271 12.9012C12.0196 12.9194 12.0087 12.9349 12 12.9521V15.75C12 16.1642 11.6642 16.5 11.25 16.5C10.8358 16.5 10.5 16.1642 10.5 15.75V10.5012C10.5 10.087 10.8358 9.7512 11.25 9.7512C11.652 9.7512 11.9775 10.0684 11.9964 10.4657C12.8026 9.8311 13.7281 9.6353 14.4778 9.7826C15.7063 10.0241 16.5 11.1049 16.5 12.5363V15.75Z" fill="#212121"/>
</svg>
