<svg width="24" height="24" viewBox="0 0 24 24" fill="none" xmlns="http://www.w3.org/2000/svg">
<path d="M16.5 21H7.5C5.0187 21 3 18.9813 3 16.5V7.5C3 5.0187 5.0187 3 7.5 3H16.5C18.9813 3 21 5.0187 21 7.5V16.5C21 18.9813 18.9813 21 16.5 21ZM7.5 4.5C5.8458 4.5 4.5 5.8458 4.5 7.5V16.5C4.5 18.1542 5.8458 19.5 7.5 19.5H16.5C18.1542 19.5 19.5 18.1542 19.5 16.5V7.5C19.5 5.8458 18.1542 4.5 16.5 4.5H7.5Z" fill="#212121"/>
<path d="M9 10.4322V15.75C9 16.1642 8.6642 16.5 8.25 16.5C7.8358 16.5 7.5 16.1642 7.5 15.75V10.4322C7.5 10.018 7.8358 9.68221 8.25 9.68221C8.6642 9.68221 9 10.018 9 10.4322ZM8.25 7.20001C7.8358 7.20001 7.5 7.53581 7.5 7.95001V8.10001C7.5 8.51421 7.8358 8.85001 8.25 8.85001C8.6642 8.85001 9 8.51421 9 8.10001V7.95001C9 7.53581 8.6642 7.20001 8.25 7.20001ZM14.4779 9.78271C13.7281 9.63541 12.8027 9.83121 11.9965 10.4658C11.9776 10.0684 11.6521 9.75131 11.2501 9.75131C10.8359 9.75131 10.5001 10.0871 10.5001 10.5013V15.75C10.5001 16.1642 10.8359 16.5 11.2501 16.5C11.6643 16.5 12.0001 16.1642 12.0001 15.75V12.9521C12.0088 12.9348 12.0197 12.9194 12.0272 12.9012C12.5418 11.6425 13.504 11.12 14.1887 11.2546C14.7043 11.3559 15.0001 11.8231 15.0001 12.5363V15.75C15.0001 16.1642 15.3359 16.5 15.7501 16.5C16.1643 16.5 16.5001 16.1642 16.5001 15.75V12.5363C16.5 11.1049 15.7063 10.0241 14.4779 9.78271Z" fill="#212121"/>
</svg>
