<svg width="24" height="24" viewBox="0 0 24 24" fill="none" xmlns="http://www.w3.org/2000/svg">
<path d="M12.0308 21.6245C10.4937 21.6245 9.01931 21.2892 7.64861 20.628C7.56231 20.5863 7.46211 20.5756 7.36701 20.5979C6.54571 20.79 4.89951 21.2199 3.99131 21.4591C3.57741 21.5683 3.15081 21.4518 2.84991 21.1479C2.55331 20.8484 2.43831 20.4096 2.54981 20.0028C2.78341 19.1502 3.15361 17.8013 3.38741 16.96C3.41811 16.8494 3.40181 16.7306 3.34161 16.6254C2.50431 15.164 2.06171 13.4997 2.06171 11.8123C2.06161 6.4018 6.53381 2 12.0308 2C17.5278 2 22 6.4018 22 11.8123C22 17.2228 17.5278 21.6245 12.0308 21.6245ZM7.46451 19.1626C7.74131 19.1626 8.01661 19.2244 8.26741 19.3453C9.44351 19.9127 10.7098 20.2004 12.0308 20.2004C16.7425 20.2004 20.5758 16.4375 20.5758 11.8123C20.5758 7.1871 16.7425 3.4242 12.0308 3.4242C7.31911 3.4242 3.48581 7.1871 3.48581 11.8123C3.48581 13.2516 3.86321 14.6712 4.57721 15.9174C4.82821 16.3555 4.89291 16.8612 4.75951 17.3413C4.56041 18.0579 4.26211 19.1434 4.03391 19.9754C5.08731 19.6991 6.33961 19.3756 7.04251 19.2112C7.18151 19.1787 7.32321 19.1626 7.46451 19.1626Z" fill="#212121"/>
<path d="M14.5895 16.8924C14.2314 16.8924 13.8835 16.8395 13.5552 16.7353C13.1353 16.6022 12.6644 16.4435 12.0676 16.1857C9.93022 15.2631 8.37702 13.3563 7.64132 12.3017C7.62042 12.2717 7.60582 12.2508 7.59762 12.2399C7.27172 11.8051 6.51892 10.6737 6.51892 9.49852C6.51892 8.26492 7.13822 7.60432 7.40272 7.32222L7.45272 7.26852C7.74772 6.94642 8.08612 6.91162 8.21792 6.91162C8.36502 6.91162 8.55502 6.91272 8.71992 6.92092C8.73072 6.92142 8.74182 6.92152 8.75322 6.92152L8.79372 6.92142C8.98062 6.92142 9.19632 6.96052 9.39072 7.42742C9.46282 7.60062 9.56872 7.85832 9.68022 8.12952C9.89852 8.66062 10.1458 9.26262 10.1874 9.34592C10.2503 9.47162 10.3211 9.66492 10.209 9.88932L10.1731 9.96212C10.1069 10.0971 10.0547 10.2038 9.93612 10.3422C9.89312 10.3924 9.84862 10.4466 9.80422 10.5007C9.71512 10.6092 9.62302 10.7215 9.54182 10.8022C9.40622 10.9372 9.33482 11.0228 9.44392 11.21C9.62752 11.5249 10.1337 12.328 10.8666 12.9814C11.6832 13.7095 12.3795 14.0115 12.7537 14.1737C12.827 14.2055 12.8864 14.2313 12.93 14.2531C13.0279 14.3021 13.1056 14.326 13.1675 14.326C13.2407 14.326 13.3018 14.2919 13.3717 14.2119C13.5594 13.9973 14.0248 13.4462 14.1849 13.2059C14.2946 13.0413 14.418 12.9646 14.5733 12.9646C14.6767 12.9646 14.7801 12.9991 14.8858 13.0376C15.1389 13.1297 16.4945 13.7986 16.6681 13.8854C16.7183 13.9106 16.7653 13.9333 16.8088 13.9543C17.0073 14.0502 17.1385 14.1136 17.2061 14.2262C17.3031 14.3882 17.2683 14.9692 17.0632 15.5438C16.8273 16.2045 15.7291 16.7677 15.2336 16.8417C15.0044 16.8758 14.7938 16.8924 14.5895 16.8924Z" fill="#212121"/>
</svg>
