<svg width="24" height="24" viewBox="0 0 24 24" fill="none" xmlns="http://www.w3.org/2000/svg">
<path d="M12 2.05432C6.486 2.05432 2 6.46652 2 11.8899C2 13.5803 2.4433 15.2476 3.2821 16.7115C3.4052 16.9264 3.4375 17.1726 3.3731 17.4046C3.1282 18.2859 2.7404 19.6989 2.4957 20.5919C2.4297 20.8324 2.4784 21.0835 2.6289 21.281C2.7782 21.4768 3.0128 21.5936 3.2564 21.5936C3.3248 21.5936 3.3935 21.5846 3.4605 21.5669C4.4146 21.3156 6.1446 20.8638 7.0103 20.6614C7.0778 20.6456 7.147 20.6376 7.216 20.6376C7.3491 20.6376 7.4826 20.6681 7.602 20.7256C8.9773 21.3891 10.4571 21.7255 12 21.7255C17.514 21.7255 22 17.3133 22 11.89C22 6.46672 17.514 2.05432 12 2.05432ZM17.5016 15.9829C17.2584 16.6641 16.093 17.2859 15.5324 17.3697C15.0297 17.4448 14.3938 17.4761 13.695 17.2541C13.2713 17.1197 12.7278 16.9403 12.0318 16.6397C9.1054 15.3765 7.1941 12.4308 7.0482 12.2361C6.9024 12.0415 5.857 10.6547 5.857 9.21932C5.857 7.78392 6.6106 7.07832 6.878 6.78632C7.1454 6.49442 7.4615 6.42132 7.6559 6.42132C7.8504 6.42132 8.045 6.42312 8.215 6.43162C8.3941 6.44052 8.6346 6.36362 8.8713 6.93232C9.1144 7.51622 9.6979 8.95162 9.7708 9.09772C9.8438 9.24362 9.8924 9.41392 9.7952 9.60862C9.698 9.80322 9.6493 9.92492 9.5035 10.0952C9.3576 10.2655 9.1972 10.4755 9.0659 10.6061C8.9199 10.7516 8.7678 10.9093 8.9379 11.2013C9.1081 11.4933 9.6936 12.4484 10.5608 13.2217C11.6751 14.2152 12.615 14.5232 12.9068 14.6692C13.1985 14.8152 13.3687 14.7908 13.5388 14.5962C13.7091 14.4015 14.2681 13.7446 14.4626 13.4527C14.6572 13.1608 14.8516 13.2094 15.1191 13.3067C15.3864 13.4041 16.8207 14.1095 17.1125 14.2555C17.4042 14.4016 17.5986 14.4746 17.6716 14.5962C17.7447 14.7178 17.7447 15.3017 17.5016 15.9829Z" fill="#212121"/>
</svg>
